<?xml version="1.0" encoding="UTF-8" standalone="no"?>
<!DOCTYPE svg PUBLIC "-//W3C//DTD SVG 1.1//EN" "http://www.w3.org/Graphics/SVG/1.1/DTD/svg11.dtd">
<svg xmlns="http://www.w3.org/2000/svg" version="1.1" viewBox="0.00 0.00 500.00 500.00">
<g stroke-width="2.00" fill="none" stroke-linecap="butt">
<path stroke="#3c91d9" vector-effect="non-scaling-stroke" d="
  M 133.16 192.10
  Q 132.72 192.92 131.40 192.87
  Q 130.86 192.86 130.52 193.29
  Q 130.23 193.66 130.24 194.15
  Q 130.25 194.68 129.83 195.01
  Q 127.11 197.16 124.22 197.76"
/>
<path stroke="#a3a2a1" vector-effect="non-scaling-stroke" d="
  M 172.65 214.59
  Q 171.71 215.70 169.75 216.01"
/>
<path stroke="#a3a2a1" vector-effect="non-scaling-stroke" d="
  M 126.98 241.59
  Q 126.95 242.21 125.88 242.56
  Q 124.54 242.99 124.07 243.34"
/>
<path stroke="#a3a2a1" vector-effect="non-scaling-stroke" d="
  M 173.02 225.36
  Q 171.73 224.30 170.13 224.06"
/>
<path stroke="#a3a2a1" vector-effect="non-scaling-stroke" d="
  M 134.48 245.18
  L 134.40 248.26"
/>
<path stroke="#a3bc9e" vector-effect="non-scaling-stroke" d="
  M 162.23 243.84
  L 160.27 242.06"
/>
<path stroke="#a3bc9e" vector-effect="non-scaling-stroke" d="
  M 151.99 248.15
  L 151.63 245.05"
/>
<path stroke="#a3a2a1" vector-effect="non-scaling-stroke" d="
  M 239.61 249.96
  Q 240.66 251.82 239.83 253.09"
/>
<path stroke="#a3bc9e" vector-effect="non-scaling-stroke" d="
  M 203.21 264.03
  L 200.86 262.20"
/>
<path stroke="#a3bc9e" vector-effect="non-scaling-stroke" d="
  M 193.43 267.00
  L 193.97 269.81"
/>
<path stroke="#3c91d9" vector-effect="non-scaling-stroke" d="
  M 179.50 301.42
  Q 177.58 301.96 176.12 301.52"
/>
<path stroke="#a3bc9e" vector-effect="non-scaling-stroke" d="
  M 138.42 294.25
  L 138.60 291.11"
/>
<path stroke="#a3bc9e" vector-effect="non-scaling-stroke" d="
  M 131.72 287.04
  Q 130.37 288.55 128.98 288.77"
/>
</g>
<path fill="#1a64d3" d="
  M 133.16 192.10
  Q 132.72 192.92 131.40 192.87
  Q 130.86 192.86 130.52 193.29
  Q 130.23 193.66 130.24 194.15
  Q 130.25 194.68 129.83 195.01
  Q 127.11 197.16 124.22 197.76
  Q 121.62 192.06 124.31 189.41
  C 127.41 186.35 131.69 188.24 133.16 192.10
  Z"
/>
<path fill="#5ebddf" d="
  M 133.16 192.10
  L 158.61 192.05
  Q 159.57 192.05 160.05 192.88
  L 172.65 214.59
  Q 171.71 215.70 169.75 216.01
  L 158.18 195.91
  A 1.24 1.23 75.4 0 0 157.13 195.29
  Q 146.01 195.11 134.78 195.26
  C 133.91 195.27 133.09 195.42 132.43 196.05
  Q 130.45 197.94 127.93 198.24
  A 1.20 1.18 -77.9 0 0 127.05 198.82
  L 115.09 219.54
  A 1.75 1.75 0.0 0 0 115.10 221.29
  L 126.98 241.59
  Q 126.95 242.21 125.88 242.56
  Q 124.54 242.99 124.07 243.34
  Q 119.06 233.40 113.05 223.75
  C 112.19 222.37 111.16 221.82 109.55 221.87
  Q 102.33 222.09 94.54 221.88
  Q 93.62 221.85 93.62 220.93
  L 93.62 220.50
  Q 93.62 219.12 95.00 219.12
  L 110.67 219.08
  Q 111.85 219.07 112.45 218.05
  L 124.22 197.76
  Q 127.11 197.16 129.83 195.01
  Q 130.25 194.68 130.24 194.15
  Q 130.23 193.66 130.52 193.29
  Q 130.86 192.86 131.40 192.87
  Q 132.72 192.92 133.16 192.10
  Z"
/>
<path fill="#5ebddf" d="
  M 228.27 221.68
  L 228.28 213.34
  A 0.32 0.32 0.0 0 1 228.60 213.02
  L 232.62 213.00
  A 0.32 0.32 0.0 0 1 232.94 213.32
  L 232.87 233.68
  A 0.32 0.32 0.0 0 1 232.55 234.00
  L 228.61 233.98
  A 0.32 0.32 0.0 0 1 228.29 233.66
  L 228.32 226.30
  A 0.32 0.32 0.0 0 0 228.00 225.98
  L 220.23 226.01
  A 0.32 0.32 0.0 0 0 219.91 226.33
  L 219.96 233.69
  A 0.32 0.32 0.0 0 1 219.64 234.01
  L 215.63 233.97
  A 0.32 0.32 0.0 0 1 215.31 233.65
  L 215.27 213.32
  A 0.32 0.32 0.0 0 1 215.59 213.00
  L 219.67 213.00
  A 0.32 0.32 0.0 0 1 219.99 213.32
  L 219.92 221.68
  A 0.32 0.32 0.0 0 0 220.24 222.00
  L 227.95 222.00
  A 0.32 0.32 0.0 0 0 228.27 221.68
  Z"
/>
<path fill="#5ebddf" d="
  M 259.56 224.89
  A 9.01 9.01 0.0 0 1 250.55 233.90
  L 248.83 233.90
  A 9.01 9.01 0.0 0 1 239.82 224.89
  L 239.82 222.13
  A 9.01 9.01 0.0 0 1 248.83 213.12
  L 250.55 213.12
  A 9.01 9.01 0.0 0 1 259.56 222.13
  L 259.56 224.89
  Z
  M 249.6354 230.1199
  A 6.61 5.52 90.3 0 0 255.1899 223.5389
  A 6.61 5.52 90.3 0 0 249.7046 216.9001
  A 6.61 5.52 90.3 0 0 244.1501 223.4811
  A 6.61 5.52 90.3 0 0 249.6354 230.1199
  Z"
/>
<path fill="#5ebddf" d="
  M 270.97 230.00
  L 279.93 230.00
  A 0.34 0.34 0.0 0 1 280.27 230.34
  L 280.27 233.66
  A 0.34 0.34 0.0 0 1 279.93 234.00
  L 266.38 234.00
  A 0.34 0.34 0.0 0 1 266.04 233.66
  L 266.13 213.34
  A 0.34 0.34 0.0 0 1 266.47 213.00
  L 270.36 213.01
  A 0.34 0.34 0.0 0 1 270.70 213.35
  L 270.63 229.66
  A 0.34 0.34 0.0 0 0 270.97 230.00
  Z"
/>
<path fill="#5ebddf" d="
  M 291.50 221.55
  L 298.39 213.13
  A 0.34 0.34 0.0 0 1 298.65 213.00
  L 303.01 213.02
  A 0.34 0.34 0.0 0 1 303.27 213.57
  L 295.44 223.12
  A 0.34 0.34 0.0 0 0 295.44 223.56
  L 303.69 233.44
  A 0.34 0.34 0.0 0 1 303.43 234.00
  L 299.07 234.00
  A 0.34 0.34 0.0 0 1 298.81 233.88
  L 291.49 225.07
  A 0.34 0.34 0.0 0 0 290.89 225.29
  L 290.94 233.63
  A 0.34 0.34 0.0 0 1 290.60 233.97
  L 286.68 233.99
  A 0.34 0.34 0.0 0 1 286.34 233.65
  L 286.34 213.34
  A 0.34 0.34 0.0 0 1 286.68 213.00
  L 290.59 213.02
  A 0.34 0.34 0.0 0 1 290.93 213.36
  L 290.89 221.33
  A 0.34 0.34 0.0 0 0 291.50 221.55
  Z"
/>
<path fill="#5ebddf" d="
  M 312.76 230.24
  L 311.65 233.75
  A 0.36 0.36 0.0 0 1 311.31 234.00
  L 307.35 233.99
  A 0.36 0.36 0.0 0 1 307.01 233.51
  L 314.31 213.24
  A 0.36 0.36 0.0 0 1 314.65 213.00
  L 319.75 213.00
  A 0.36 0.36 0.0 0 1 320.09 213.24
  L 327.38 233.52
  A 0.36 0.36 0.0 0 1 327.04 234.00
  L 323.16 233.99
  A 0.36 0.36 0.0 0 1 322.82 233.75
  L 321.64 230.25
  A 0.36 0.36 0.0 0 0 321.30 230.00
  L 313.10 229.99
  A 0.36 0.36 0.0 0 0 312.76 230.24
  Z
  M 314.51 225.55
  A 0.34 0.34 0.0 0 0 314.83 226.00
  L 319.55 225.99
  A 0.34 0.34 0.0 0 0 319.87 225.54
  L 317.50 218.83
  A 0.34 0.34 0.0 0 0 316.86 218.83
  L 314.51 225.55
  Z"
/>
<path fill="#5ebddf" d="
  M 345.09 227.37
  L 349.64 233.76
  A 0.12 0.12 0.0 0 1 349.55 233.95
  L 345.00 234.01
  Q 344.67 234.02 344.48 233.74
  L 340.21 227.52
  Q 339.96 227.16 339.54 227.07
  Q 338.78 226.91 337.97 227.00
  Q 337.37 227.06 337.37 227.66
  L 337.39 233.43
  Q 337.39 234.00 336.82 234.00
  L 333.44 234.00
  A 0.56 0.56 0.0 0 1 332.88 233.44
  L 332.87 213.55
  Q 332.87 212.98 333.45 212.98
  Q 337.76 213.01 341.86 213.01
  C 349.84 213.01 351.46 222.61 345.28 226.41
  Q 344.67 226.79 345.09 227.37
  Z
  M 337.38 217.40
  L 337.40 222.62
  A 0.40 0.40 0.0 0 0 337.81 223.02
  L 341.50 223.00
  A 2.99 2.84 -0.3 0 0 344.47 220.14
  L 344.47 219.80
  A 2.99 2.84 -0.3 0 0 341.46 216.98
  L 337.77 217.00
  A 0.40 0.40 0.0 0 0 337.38 217.40
  Z"
/>
<rect fill="#5ebddf" x="356.08" y="213.01" width="4.64" height="20.98" rx="0.30"/>
<path fill="#5ebddf" d="
  M 371.75 230.24
  L 370.66 233.75
  A 0.36 0.36 0.0 0 1 370.31 234.00
  L 366.36 233.99
  A 0.36 0.36 0.0 0 1 366.02 233.51
  L 373.31 213.24
  A 0.36 0.36 0.0 0 1 373.65 213.00
  L 378.77 213.00
  A 0.36 0.36 0.0 0 1 379.11 213.24
  L 386.38 233.53
  A 0.36 0.36 0.0 0 1 386.04 234.01
  L 382.11 233.98
  A 0.36 0.36 0.0 0 1 381.77 233.73
  L 380.64 230.25
  A 0.36 0.36 0.0 0 0 380.30 230.00
  L 372.10 229.99
  A 0.36 0.36 0.0 0 0 371.75 230.24
  Z
  M 373.54 225.56
  A 0.34 0.34 0.0 0 0 373.86 226.01
  L 378.60 225.98
  A 0.34 0.34 0.0 0 0 378.92 225.52
  L 376.50 218.81
  A 0.34 0.34 0.0 0 0 375.86 218.82
  L 373.54 225.56
  Z"
/>
<path fill="#5ebddf" d="
  M 396.10 233.99
  L 392.20 234.00
  A 0.32 0.32 0.0 0 1 391.88 233.68
  L 391.95 213.37
  A 0.32 0.32 0.0 0 1 392.27 213.05
  L 397.59 212.98
  A 0.32 0.32 0.0 0 1 397.87 213.15
  L 405.40 226.74
  A 0.32 0.32 0.0 0 0 406.00 226.59
  L 405.99 213.33
  A 0.32 0.32 0.0 0 1 406.31 213.01
  L 410.18 213.00
  A 0.32 0.32 0.0 0 1 410.50 213.32
  L 410.49 233.68
  A 0.32 0.32 0.0 0 1 410.17 234.00
  L 404.79 234.00
  A 0.32 0.32 0.0 0 1 404.51 233.84
  L 397.03 220.46
  A 0.32 0.32 0.0 0 0 396.43 220.62
  L 396.42 233.67
  A 0.32 0.32 0.0 0 1 396.10 233.99
  Z"
/>
<rect fill="#5ebddf" x="-1.80" y="-3.45" transform="translate(419.49,216.46) rotate(0.2)" width="3.60" height="6.90" rx="0.35"/>
<path fill="#5ebddf" d="
  M 438.02 225.85
  C 434.76 225.07 429.17 224.64 428.09 220.90
  C 426.51 215.49 431.18 212.89 435.80 212.98
  Q 442.05 213.11 443.71 218.35
  Q 443.92 219.00 443.23 219.00
  L 439.78 219.00
  Q 439.33 219.00 439.09 218.61
  C 438.06 216.90 434.35 215.98 432.91 217.96
  A 1.88 1.88 0.0 0 0 433.79 220.83
  C 437.64 222.22 445.47 222.37 444.08 228.83
  Q 443.45 231.75 440.54 233.01
  C 435.51 235.18 428.57 234.15 427.03 228.06
  A 0.45 0.45 0.0 0 1 427.47 227.50
  L 430.80 227.50
  Q 431.43 227.50 431.72 228.06
  C 432.90 230.37 436.91 230.90 438.84 229.21
  A 1.95 1.94 -58.8 0 0 438.02 225.85
  Z"
/>
<path fill="#e88762" d="
  M 172.65 214.59
  Q 177.45 215.11 179.04 219.27
  Q 179.22 219.75 179.06 220.23
  Q 177.67 224.43 173.02 225.36
  Q 171.73 224.30 170.13 224.06
  Q 167.65 220.62 168.68 218.75
  Q 169.40 217.45 169.75 216.01
  Q 171.71 215.70 172.65 214.59
  Z"
/>
<path fill="#5ebddf" d="
  M 170.13 224.06
  Q 171.73 224.30 173.02 225.36
  L 162.23 243.84
  L 160.27 242.06
  Q 161.55 238.78 162.12 237.87
  Q 166.34 231.16 170.13 224.06
  Z"
/>
<path fill="#5ebddf" d="
  M 239.61 249.96
  Q 240.66 251.82 239.83 253.09
  L 210.09 252.95
  A 0.78 0.78 0.0 0 0 209.39 253.35
  L 203.21 264.03
  L 200.86 262.20
  L 207.78 250.26
  Q 208.04 249.80 207.78 249.35
  L 201.00 237.90
  Q 200.64 237.29 199.95 237.15
  Q 196.28 236.40 195.02 233.60
  Q 194.74 232.98 194.05 232.97
  L 180.81 232.96
  A 3.46 3.45 -74.9 0 0 177.82 234.69
  L 169.62 248.85
  Q 169.09 249.77 169.62 250.68
  L 178.27 265.64
  Q 178.94 266.80 180.28 266.82
  L 193.43 267.00
  L 193.97 269.81
  L 180.43 270.06
  A 0.94 0.93 -0.6 0 0 179.51 270.99
  L 179.50 301.42
  Q 177.58 301.96 176.12 301.52
  Q 176.35 285.76 176.12 270.00
  Q 176.08 267.70 174.93 265.70
  Q 170.60 258.20 166.56 251.55
  A 3.41 3.40 -45.5 0 1 166.53 248.07
  L 176.19 231.49
  A 3.09 3.08 15.3 0 1 178.87 229.97
  L 193.83 230.06
  Q 194.33 230.07 194.75 229.78
  C 195.92 228.98 196.54 227.68 197.96 227.23
  C 199.77 226.65 202.50 226.47 203.70 228.33
  Q 206.35 232.38 203.58 235.00
  Q 203.12 235.44 203.44 235.99
  L 211.29 249.50
  Q 211.56 249.96 212.09 249.96
  L 239.61 249.96
  Z"
/>
<path fill="#e8bb5c" d="
  M 160.27 242.06
  L 162.23 243.84
  Q 161.95 247.05 161.74 248.01
  Q 161.25 250.35 158.56 250.95
  Q 154.36 251.90 151.99 248.15
  L 151.63 245.05
  Q 153.45 242.74 154.98 241.72
  Q 157.42 240.08 160.27 242.06
  Z"
/>
<path fill="#e88762" d="
  M 134.48 245.18
  L 134.40 248.26
  C 132.94 249.45 130.37 252.46 128.28 251.78
  C 126.34 251.15 124.33 249.56 123.99 247.51
  Q 123.82 246.50 124.07 243.34
  Q 124.54 242.99 125.88 242.56
  Q 126.95 242.21 126.98 241.59
  Q 130.86 240.54 134.48 245.18
  Z"
/>
<path fill="#5ebddf" d="
  M 151.63 245.05
  L 151.99 248.15
  L 134.40 248.26
  L 134.48 245.18
  L 151.63 245.05
  Z"
/>
<path fill="#e88762" d="
  M 239.83 253.09
  Q 240.66 251.82 239.61 249.96
  Q 240.70 246.71 242.72 246.17
  Q 247.43 244.92 249.46 248.62
  Q 250.95 251.35 249.02 253.80
  Q 245.76 257.93 241.35 254.65
  Q 240.57 254.07 239.83 253.09
  Z"
/>
<path fill="#5ebddf" d="
  M 138.42 294.25
  L 138.60 291.11
  L 153.18 290.96
  Q 153.69 290.96 153.94 290.52
  L 162.82 275.23
  A 1.01 1.00 48.2 0 0 162.87 274.28
  Q 161.85 272.04 160.57 269.92
  Q 157.00 264.06 153.94 258.36
  Q 153.71 257.93 153.22 257.93
  L 135.34 258.03
  A 2.53 2.51 14.7 0 0 133.17 259.29
  L 124.57 274.08
  Q 124.34 274.48 124.57 274.87
  L 131.72 287.04
  Q 130.37 288.55 128.98 288.77
  L 121.69 276.14
  A 0.74 0.73 -14.6 0 0 121.05 275.77
  L 105.47 275.93
  A 0.46 0.45 89.4 0 1 105.01 275.47
  L 105.01 273.02
  A 0.48 0.48 0.0 0 1 105.49 272.54
  L 121.27 272.57
  A 1.54 1.50 14.3 0 0 122.60 271.80
  L 131.19 256.50
  A 3.05 3.05 0.0 0 1 133.87 254.94
  L 154.76 255.01
  A 1.08 1.07 75.0 0 1 155.69 255.55
  L 166.44 274.14
  Q 166.68 274.57 166.44 274.99
  L 155.65 293.65
  A 1.09 1.07 14.7 0 1 154.71 294.19
  L 138.42 294.25
  Z"
/>
<path fill="#e8bb5c" d="
  M 298.03 275.00
  L 291.41 275.00
  A 0.37 0.37 0.0 0 0 291.06 275.25
  L 290.22 277.67
  A 0.37 0.37 0.0 0 1 289.87 277.92
  L 286.48 277.93
  A 0.37 0.37 0.0 0 1 286.14 277.41
  L 294.38 258.23
  A 0.37 0.37 0.0 0 1 294.72 258.01
  L 298.94 258.00
  A 0.37 0.37 0.0 0 1 299.31 258.30
  L 302.90 277.51
  A 0.37 0.37 0.0 0 1 302.54 277.95
  L 299.14 277.96
  A 0.37 0.37 0.0 0 1 298.77 277.65
  L 298.39 275.31
  A 0.37 0.37 0.0 0 0 298.03 275.00
  Z
  M 292.70 271.45
  A 0.34 0.34 0.0 0 0 293.01 271.91
  L 297.45 271.96
  A 0.34 0.34 0.0 0 0 297.79 271.56
  L 296.51 263.64
  A 0.34 0.34 0.0 0 0 295.85 263.57
  L 292.70 271.45
  Z"
/>
<path fill="#e8bb5c" d="
  M 323.69 271.59
  L 328.71 258.22
  A 0.33 0.33 0.0 0 1 329.02 258.01
  L 332.31 258.01
  A 0.33 0.33 0.0 0 1 332.62 258.47
  L 324.57 277.75
  A 0.33 0.33 0.0 0 1 324.26 277.96
  L 320.74 277.89
  A 0.33 0.33 0.0 0 1 320.42 277.62
  L 317.13 258.40
  A 0.33 0.33 0.0 0 1 317.45 258.02
  L 320.91 257.99
  A 0.33 0.33 0.0 0 1 321.24 258.28
  L 323.05 271.52
  A 0.33 0.33 0.0 0 0 323.69 271.59
  Z"
/>
<path fill="#e8bb5c" d="
  M 348.95 266.05
  L 354.33 266.01
  A 0.44 0.44 0.0 0 1 354.77 266.51
  L 354.46 269.12
  A 0.44 0.44 0.0 0 1 354.02 269.51
  L 348.41 269.50
  A 0.44 0.44 0.0 0 0 347.97 269.89
  L 347.48 274.01
  A 0.44 0.44 0.0 0 0 347.92 274.50
  L 356.39 274.50
  A 0.44 0.44 0.0 0 1 356.83 274.99
  L 356.55 277.58
  A 0.44 0.44 0.0 0 1 356.11 277.97
  L 343.66 277.94
  A 0.44 0.44 0.0 0 1 343.22 277.45
  L 345.54 258.43
  A 0.44 0.44 0.0 0 1 345.98 258.04
  L 358.39 258.04
  A 0.44 0.44 0.0 0 1 358.83 258.53
  L 358.53 261.12
  A 0.44 0.44 0.0 0 1 358.09 261.51
  L 349.36 261.51
  A 0.44 0.44 0.0 0 0 348.93 261.90
  L 348.51 265.56
  A 0.44 0.44 0.0 0 0 348.95 266.05
  Z"
/>
<path fill="#e8bb5c" d="
  M 200.86 262.20
  L 203.21 264.03
  Q 206.02 270.59 199.60 272.73
  A 2.18 2.17 -36.5 0 1 197.65 272.44
  L 193.97 269.81
  L 193.43 267.00
  Q 195.68 261.96 200.86 262.20
  Z"
/>
<path fill="#e8bb5c" d="
  M 131.72 287.04
  Q 135.79 287.77 138.60 291.11
  L 138.42 294.25
  C 136.72 295.78 134.50 298.88 131.73 297.64
  Q 126.01 295.09 128.98 288.77
  Q 130.37 288.55 131.72 287.04
  Z"
/>
<path fill="#1a64d3" d="
  M 176.12 301.52
  Q 177.58 301.96 179.50 301.42
  Q 182.47 303.11 183.04 305.71
  C 184.00 310.08 179.75 313.37 175.80 311.21
  C 171.44 308.83 172.89 303.97 176.12 301.52
  Z"
/>
</svg>
